<svg id="icon-sun" viewBox="0 0 512 512" width="100%" height="100%">
  <path class="path1" fill="#FDB813" d="M86.448 210.64L0 254.576l86.448 43.936zM425.552 210.64v87.872L512 254.576zM134.416 118.08l-96.112-12.896 46.208 85.248zM473.696 105.184l-96.112 12.896 49.904 72.352zM344.8 12.88l-73.216 63.584 81.44 33.04zM167.2 12.88l-8.224 96.624 81.44-33.04zM38.304 406.816l96.112-12.896-49.904-72.352zM473.696 406.816l-46.208-85.248-49.904 72.352zM353.024 402.496l-81.44 33.04L344.8 499.12zM240.416 435.536l-81.44-33.04 8.224 96.624z"></path>
  <circle fill="#FDB813" cx="254.496" cy="256" r="146.496"></circle>
</svg>